<svg xmlns="http://www.w3.org/2000/svg" viewBox="2.47 12.47 423.29 111.13" role="img" aria-label="kichijitsu">
  <!-- kichijitsu ワードマーク (public 配信用・色固定版)。
       正本は /brand/wordmark.svg (currentColor)。<img src> では currentColor が
       ページの色を継承せず墨が出ないため、このコピーだけ墨を #24211e に焼き込む。
       j の点は正本と同じ朱 #D7402E 固定。手編集禁止、正本の再生成に追従して sed で再生成する
       (sed 's/fill="currentColor"/fill="#24211e"/g' brand/wordmark.svg > apps/web/public/wordmark.svg)。 -->
  <path d="M6.469 100L18.656 100L18.656 82.375L23.156 77.547L39.328 100L53.953 100L32.438 70.234L52.734 47.594L38.438 47.594L19.547 68.734L18.656 68.734L18.656 30.156L6.469 30.156M62.565 100L74.752 100L74.752 47.594L62.565 47.594M111.864 101.078C123.630 101.078 132.349 94.703 134.599 84.250L123.208 81.859C121.942 87.531 117.958 91.188 111.958 91.188C103.474 91.188 99.255 83.734 99.255 74.031C99.255 64.234 103.474 56.828 111.958 56.828C117.864 56.828 121.755 60.344 123.067 65.781L134.458 63.391C132.208 53.172 123.536 46.938 111.864 46.938C96.583 46.938 86.833 57.766 86.833 74.078C86.833 90.203 96.583 101.078 111.864 101.078M158.679 69.297C158.679 61.703 163.367 57.297 169.882 57.297C176.257 57.297 180.101 61.516 180.101 68.547L180.101 100L192.336 100L192.336 66.672C192.336 54.063 185.164 46.938 174.382 46.938C166.929 46.938 161.632 50.406 158.492 57.297L158.492 30.156L146.492 30.156L146.492 100L158.679 100M206.713 100L218.901 100L218.901 47.594L206.713 47.594M233.231 47.594L233.231 102.906C233.231 107.313 231.356 109.609 226.622 109.609L224.841 109.609L224.841 119.594L227.325 119.594C238.762 119.594 245.466 114.391 245.466 103.047L245.466 47.594M259.843 100L272.031 100L272.031 47.594L259.843 47.594M310.642 47.594L300.517 47.594L300.517 35.125L288.330 35.125L288.330 47.594L280.877 47.594L280.877 57.156L288.330 57.156L288.330 86.266C288.330 95.547 293.908 100.703 303.939 100.703C306.517 100.703 309.424 100.375 312.096 99.578L310.174 90.156C309.002 90.438 306.846 90.766 305.721 90.766C302.017 90.766 300.517 89.031 300.517 85.234L300.517 57.156L310.642 57.156M341.567 101.078C354.786 101.078 364.067 94.234 364.067 84.297C364.067 76.938 359.332 72.250 349.395 70.141L340.489 68.266C335.145 67.094 333.036 65.172 333.036 62.125C333.036 58.563 336.973 56.031 342.129 56.031C347.754 56.031 350.754 58.938 351.973 62.594L362.848 60.438C360.739 52.328 353.848 46.938 341.989 46.938C329.426 46.938 320.848 53.172 320.848 62.875C320.848 70.563 325.676 75.391 335.567 77.547L344.520 79.469C349.301 80.500 351.598 82.422 351.598 85.469C351.598 89.031 347.801 91.750 341.801 91.750C335.848 91.750 332.192 89.266 330.786 84.063L319.395 86.219C321.223 95.734 329.520 101.078 341.567 101.078M393.866 100.656C401.460 100.656 406.944 97 410.085 89.500L410.179 100L421.757 100L421.757 47.594L409.522 47.594L409.522 78.297C409.522 85.891 404.835 90.297 398.366 90.297C391.991 90.297 388.101 86.078 388.101 79.047L388.101 47.594L375.913 47.594L375.913 80.922C375.913 93.531 383.085 100.656 393.866 100.656" fill="#24211e"/>
  <rect x="62.08" y="26.34" width="13.16" height="13.16" rx="2.90" fill="#24211e"/>
  <rect x="206.23" y="26.34" width="13.16" height="13.16" rx="2.90" fill="#24211e"/>
  <rect x="259.36" y="26.34" width="13.16" height="13.16" rx="2.90" fill="#24211e"/>
  <rect x="231.15" y="24.70" width="16.45" height="16.45" rx="3.62" fill="#D7402E" transform="rotate(-8 239.37 32.92)"/>
</svg>
